
<svg width="220" height="280" xmlns="http://www.w3.org/2000/svg" style="font-family: sans-serif; font-size: 10px;">
  <!-- Title -->
  <text x="10" y="15" font-weight="bold">Legends</text>

  <!-- Matrix Labels -->
  <text x="60" y="30" transform="rotate(-90 60,30)" text-anchor="middle">Cumulative Production</text>
  <text x="60" y="40" transform="rotate(-90 60,40)" text-anchor="middle">Quantity in 1000 tons</text>
  <text x="110" y="200" text-anchor="middle">Cumulative Area</text>
  <text x="110" y="212" text-anchor="middle">Harvested in Km²</text>

  <!-- Bivariate matrix blocks -->
  <g transform="translate(70,60)">
    <!-- Row 0 -->
    <rect x="0" y="0" width="20" height="20" fill="#edf8e9"/>
    <rect x="20" y="0" width="20" height="20" fill="#d6eec5"/>
    <rect x="40" y="0" width="20" height="20" fill="#c1e69e"/>
    <rect x="60" y="0" width="20" height="20" fill="#9bd873"/>
    <rect x="80" y="0" width="20" height="20" fill="#74c95b"/>
    <!-- Row 1 -->
    <rect x="0" y="20" width="20" height="20" fill="#c7e9c0"/>
    <rect x="20" y="20" width="20" height="20" fill="#b3df9d"/>
    <rect x="40" y="20" width="20" height="20" fill="#97d279"/>
    <rect x="60" y="20" width="20" height="20" fill="#7ec657"/>
    <rect x="80" y="20" width="20" height="20" fill="#58b947"/>
    <!-- Row 2 -->
    <rect x="0" y="40" width="20" height="20" fill="#a1d99b"/>
    <rect x="20" y="40" width="20" height="20" fill="#8fcf88"/>
    <rect x="40" y="40" width="20" height="20" fill="#74c476"/>
    <rect x="60" y="40" width="20" height="20" fill="#5eb95c"/>
    <rect x="80" y="40" width="20" height="20" fill="#41ab5d"/>
    <!-- Row 3 -->
    <rect x="0" y="60" width="20" height="20" fill="#74c476"/>
    <rect x="20" y="60" width="20" height="20" fill="#66b55f"/>
    <rect x="40" y="60" width="20" height="20" fill="#52a54e"/>
    <rect x="60" y="60" width="20" height="20" fill="#3c933c"/>
    <rect x="80" y="60" width="20" height="20" fill="#267d29"/>
    <!-- Row 4 -->
    <rect x="0" y="80" width="20" height="20" fill="#31a354"/>
    <rect x="20" y="80" width="20" height="20" fill="#2c943e"/>
    <rect x="40" y="80" width="20" height="20" fill="#1e8733"/>
    <rect x="60" y="80" width="20" height="20" fill="#156d27"/>
    <rect x="80" y="80" width="20" height="20" fill="#00441b"/>
  </g>

  <!-- No data -->
  <rect x="70" y="180" width="20" height="20" fill="#aaa"/>
  <text x="95" y="195">No data</text>
</svg>
